# xmcd
#
# Track frame offsets:
# 150
# 10663
# 32543
# 46545
# 61821
# 68632
# 87977
# 105029
# 132059
# 143410
# 159669
# 172746
# 193293
# 201736
# 211322
# 222948
# 241806
# 254554
#
# Disc length: 3629 seconds
#
#
# Revision: 0
# Processed by: cddbd v1.5.2PL0 Copyright (c) Steve Scherf et al.
# Submitted via: FreeRIP 2.60 
#
DISCID=eb0e2b12
DTITLE=Misterija na BG glasove - Zlatna kolekcia
DYEAR=2008
DGENRE=Folklore
TTITLE0=moma hubava
TTITLE1=sveta nedelya
TTITLE2=moma rusanka
TTITLE3=listni se goro
TTITLE4=shopski napevi
TTITLE5=gylybi gukat
TTITLE6=shopski sixtet
TTITLE7=danjova mama
TTITLE8=vito horo
TTITLE9=dve pesni ot pazardjik
TTITLE10=pripevki ot zapadna bg
TTITLE11=mehmetjo
TTITLE12=lazarski buenek
TTITLE13=zastanalo slynce
TTITLE14=dreme mi se lega mi se
TTITLE15=da mi boze
TTITLE16=voskresen triptih
TTITLE17=bogorodica
EXTD=
EXTT0=
EXTT1=
EXTT2=
EXTT3=
EXTT4=
EXTT5=
EXTT6=
EXTT7=
EXTT8=
EXTT9=
EXTT10=
EXTT11=
EXTT12=
EXTT13=
EXTT14=
EXTT15=
EXTT16=
EXTT17=
PLAYORDER=
